<svg version="1.1" id="Layer_1" xmlns="http://www.w3.org/2000/svg" xmlns:xlink="http://www.w3.org/1999/xlink" x="0px" y="0px"
	 viewBox="0 0 200 200">
<path  d="M100,75c13.8,0,25,11.2,25,25s-11.2,25-25,25s-25-11.2-25-25S86.2,75,100,75z M200,120.2V79.8
	l-22.7-2.1c-1.7-5.9-4-11.5-6.9-16.7L185,43.5L156.4,15l-17.5,14.6c-5.2-2.9-10.8-5.2-16.7-6.9l-2-22.7H79.8l-2.1,22.7
	c-5.9,1.7-11.5,4-16.7,6.9L43.5,15L15,43.6l14.6,17.5c-2.9,5.2-5.2,10.8-6.9,16.7L0,79.8v40.3l22.7,2.1c1.7,5.9,4,11.5,6.9,16.7
	L15,156.5L43.6,185l17.5-14.6c5.2,2.9,10.8,5.2,16.7,6.9l2.1,22.7h40.3l2.1-22.7c5.9-1.7,11.5-4,16.7-6.9l17.5,14.6l28.5-28.5
	L170.4,139c2.9-5.2,5.2-10.8,6.9-16.7L200,120.2z M40.8,100c0-32.7,26.5-59.2,59.2-59.2s59.2,26.5,59.2,59.2s-26.5,59.2-59.2,59.2
	S40.8,132.7,40.8,100z"/>
</svg>
